%
M48
M72
T01C0.0130
T02C0.0315
T03C0.0394
%
T01
X2029Y1872
X4194Y4706
X4746Y5572
X4746Y3801
X3013Y5730
X3092Y7069
X2541Y7580
X966Y9667
X3092Y10533
X3328Y11360
X3328Y12383
X3092Y12856
X4431Y13368
X4588Y12856
X5454Y13368
X6557Y11832
X5139Y10848
X4194Y9470
X4746Y8053
X5218Y8446
X5454Y8092
X6911Y5533
X7147Y8328
X7187Y2580
X3328Y15336
T02
X4116Y15061
X4943Y4628
X4943Y1084
X6320Y1084
X3565Y1084
X2187Y1084
T03
X1675Y8655
X1675Y9655
M30
