G75*
%MOIN*%
%OFA0B0*%
%FSLAX24Y24*%
%IPPOS*%
%LPD*%
%AMOC8*
5,1,8,0,0,1.08239X$1,22.5*
%
%ADD10R,0.0354X0.0256*%
%ADD11R,0.0256X0.0354*%
%ADD12R,0.0610X0.0264*%
%ADD13C,0.0394*%
%ADD14R,0.0354X0.0276*%
%ADD15R,0.0669X0.0256*%
%ADD16R,0.0315X0.0315*%
%ADD17R,0.0276X0.0354*%
%ADD18C,0.0591*%
%ADD19C,0.0472*%
%ADD20R,0.0413X0.0256*%
%ADD21C,0.0060*%
%ADD22C,0.0270*%
D10*
X003446Y002194D03*
X003446Y002730D03*
X006163Y002730D03*
X006163Y002194D03*
X006163Y003612D03*
X006163Y004147D03*
D11*
X007431Y003683D03*
X007966Y003683D03*
X007966Y006439D03*
X007431Y006439D03*
X007431Y009194D03*
X007966Y009194D03*
X007966Y000927D03*
X007431Y000927D03*
X002454Y002305D03*
X001919Y002305D03*
X001667Y012226D03*
X001131Y012226D03*
D12*
X003880Y012108D03*
X003880Y012608D03*
X003880Y013108D03*
X003880Y013608D03*
X003880Y011608D03*
X003880Y011108D03*
X003880Y010608D03*
X006006Y010608D03*
X006006Y011108D03*
X006006Y011608D03*
X006006Y012108D03*
X006006Y012608D03*
X006006Y013108D03*
X006006Y013608D03*
D13*
X001006Y000691D03*
X001006Y015257D03*
X007698Y015257D03*
D14*
X001950Y006931D03*
X001950Y006340D03*
D15*
X003840Y006580D03*
X003840Y006080D03*
X003840Y007080D03*
X003840Y007580D03*
X003840Y008080D03*
X003840Y008580D03*
X003840Y009080D03*
X006045Y009080D03*
X006045Y008580D03*
X006045Y008080D03*
X006045Y007580D03*
X006045Y007080D03*
X006045Y006580D03*
X006045Y006080D03*
D16*
X007482Y004943D03*
X008072Y004943D03*
X008072Y007698D03*
X007482Y007698D03*
X007482Y010454D03*
X008072Y010454D03*
X008072Y002187D03*
X007482Y002187D03*
X001773Y011084D03*
X001183Y011084D03*
D17*
X007443Y011517D03*
X008033Y011517D03*
D18*
X001675Y009655D03*
X001675Y008655D03*
D19*
X004943Y004628D03*
X004943Y001084D03*
X006320Y001084D03*
X003565Y001084D03*
X002187Y001084D03*
X004116Y015061D03*
D20*
X002876Y014844D03*
X002876Y015592D03*
X001970Y015218D03*
D21*
X001990Y015218D01*
X002108Y015100D01*
X004076Y015100D01*
X004116Y015061D01*
X005336Y013840D01*
X006360Y013840D01*
X006439Y013761D01*
X006439Y012541D01*
X006045Y012541D01*
X006006Y012580D01*
X006006Y012608D01*
X005769Y012856D02*
X006006Y013092D01*
X006006Y013108D01*
X005769Y012856D02*
X004588Y012856D01*
X004431Y013368D02*
X004116Y013368D01*
X003880Y013604D01*
X003880Y013608D01*
X003880Y013108D02*
X003880Y013092D01*
X003643Y012856D01*
X003092Y012856D01*
X002856Y012620D02*
X002856Y014824D01*
X002876Y014844D01*
X003131Y015336D02*
X003328Y015336D01*
X003131Y015336D02*
X002895Y015572D01*
X002876Y015592D01*
X002856Y012620D02*
X001557Y012620D01*
X001163Y012226D01*
X001131Y012226D01*
X000927Y012226D01*
X000927Y009667D01*
X000966Y009667D01*
X000927Y009667D02*
X000927Y007383D01*
X001950Y006360D01*
X001950Y006340D01*
X001950Y002305D01*
X001919Y002305D01*
X001950Y002305D02*
X002206Y002049D01*
X002029Y001872D01*
X002206Y002049D02*
X002226Y002029D01*
X003289Y002029D01*
X003446Y002187D01*
X003446Y002194D01*
X003446Y002187D02*
X006163Y002187D01*
X006163Y002194D01*
X006163Y002226D01*
X006439Y002502D01*
X006439Y003604D01*
X006163Y003604D01*
X006163Y003612D01*
X006163Y003643D01*
X005179Y004628D01*
X004943Y004628D01*
X004746Y003801D02*
X004509Y003801D01*
X003446Y002738D01*
X003446Y002730D01*
X002462Y002305D02*
X002454Y002305D01*
X002462Y002305D02*
X002462Y005730D01*
X003013Y005730D01*
X003407Y005887D02*
X003407Y006557D01*
X003840Y006557D01*
X003840Y006580D01*
X004076Y006320D02*
X003840Y006084D01*
X003840Y006080D01*
X004076Y006320D02*
X004273Y006320D01*
X004273Y006832D01*
X002029Y006832D01*
X001950Y006911D01*
X001950Y006931D01*
X001950Y007817D01*
X005809Y007817D01*
X006045Y007580D01*
X007344Y007580D01*
X007462Y007698D01*
X007482Y007698D01*
X007738Y008053D02*
X006045Y008053D01*
X006045Y008080D01*
X006045Y008565D02*
X006045Y008580D01*
X006045Y008565D02*
X005336Y008565D01*
X005218Y008446D01*
X005454Y008092D02*
X005415Y008053D01*
X004746Y008053D01*
X003840Y008053D01*
X003840Y008080D01*
X003840Y007580D02*
X004076Y007344D01*
X006517Y007344D01*
X007423Y006439D01*
X007431Y006439D01*
X007966Y006439D02*
X008053Y006439D01*
X008053Y007698D01*
X008072Y007698D01*
X007738Y008053D02*
X007738Y001990D01*
X007659Y001911D01*
X007462Y001911D01*
X007462Y000927D01*
X007431Y000927D01*
X007966Y000927D02*
X008053Y000927D01*
X008053Y002187D01*
X008072Y002187D01*
X007482Y002187D02*
X007462Y002187D01*
X007462Y002580D01*
X007187Y002580D01*
X007423Y003683D02*
X007431Y003683D01*
X007423Y003683D02*
X005257Y005848D01*
X003446Y005848D01*
X003407Y005887D01*
X003092Y007069D02*
X003053Y007069D01*
X002541Y007580D01*
X002974Y008328D02*
X004746Y008328D01*
X005494Y009076D01*
X006045Y009076D01*
X006045Y009080D01*
X006045Y009076D02*
X006399Y009076D01*
X007147Y008328D01*
X007423Y009194D02*
X007305Y009313D01*
X004667Y009313D01*
X003958Y008604D01*
X003840Y008604D01*
X003840Y008580D01*
X003840Y009080D02*
X003840Y009116D01*
X004194Y009470D01*
X003840Y010533D02*
X003092Y010533D01*
X003328Y011360D02*
X003643Y011360D01*
X003880Y011596D01*
X003880Y011608D01*
X004116Y011360D02*
X004234Y011360D01*
X004313Y011439D01*
X004313Y011635D01*
X006006Y011635D01*
X006006Y011608D01*
X006006Y011596D01*
X006439Y011596D01*
X006439Y010966D01*
X006320Y010848D01*
X006242Y010848D01*
X006006Y010612D01*
X006006Y010608D01*
X005769Y010848D02*
X006006Y011084D01*
X006006Y011108D01*
X005769Y010848D02*
X005139Y010848D01*
X004313Y011635D02*
X004313Y012108D01*
X003880Y012108D01*
X003604Y012108D01*
X003328Y012383D01*
X002856Y012620D02*
X003880Y012620D01*
X003880Y012608D01*
X003880Y012580D01*
X004076Y012383D01*
X006557Y012383D01*
X007423Y011517D01*
X007443Y011517D01*
X007502Y011242D02*
X007738Y011242D01*
X008013Y011517D01*
X008033Y011517D01*
X007935Y011478D01*
X006872Y012541D01*
X006439Y012541D01*
X006006Y012108D02*
X006281Y011832D01*
X006557Y011832D01*
X007462Y010454D02*
X007305Y010297D01*
X001202Y010297D01*
X001202Y011084D01*
X001183Y011084D01*
X001202Y010297D02*
X001202Y008683D01*
X001675Y008683D01*
X001675Y008655D01*
X001675Y008643D01*
X001950Y008643D01*
X001950Y007817D01*
X002974Y008328D02*
X001675Y009628D01*
X001675Y009655D01*
X001754Y011084D02*
X001773Y011084D01*
X001754Y011084D02*
X001754Y012226D01*
X001667Y012226D01*
X003840Y010533D02*
X003880Y010572D01*
X003880Y010608D01*
X003880Y011108D02*
X003880Y011124D01*
X004116Y011360D01*
X005454Y013368D02*
X005769Y013368D01*
X006006Y013604D01*
X006006Y013608D01*
X007502Y011242D02*
X007502Y010454D01*
X007482Y010454D01*
X007462Y010454D01*
X008053Y010454D02*
X008053Y009194D01*
X007966Y009194D01*
X007431Y009194D02*
X007423Y009194D01*
X008053Y010454D02*
X008072Y010454D01*
X006478Y006557D02*
X006045Y006557D01*
X006045Y006580D01*
X006478Y006557D02*
X006478Y006320D01*
X004273Y006320D01*
X003840Y007069D02*
X003840Y007080D01*
X003840Y007069D02*
X003092Y007069D01*
X004194Y004706D02*
X006163Y002738D01*
X006163Y002730D01*
X006163Y004147D02*
X006163Y004155D01*
X004746Y005572D01*
X006478Y005927D02*
X006478Y006320D01*
X006478Y005927D02*
X006891Y005513D01*
X006911Y005533D01*
X006891Y005513D02*
X007462Y004943D01*
X007482Y004943D01*
X008053Y004943D02*
X008072Y004943D01*
X008053Y004943D02*
X008053Y003683D01*
X007966Y003683D01*
D22*
X007187Y002580D03*
X006911Y005533D03*
X005454Y008092D03*
X005218Y008446D03*
X004746Y008053D03*
X004194Y009470D03*
X005139Y010848D03*
X004588Y012856D03*
X004431Y013368D03*
X005454Y013368D03*
X006557Y011832D03*
X007147Y008328D03*
X004746Y005572D03*
X004194Y004706D03*
X004746Y003801D03*
X003013Y005730D03*
X003092Y007069D03*
X002541Y007580D03*
X000966Y009667D03*
X003092Y010533D03*
X003328Y011360D03*
X003328Y012383D03*
X003092Y012856D03*
X003328Y015336D03*
X002029Y001872D03*
M02*
