G75*
%MOIN*%
%OFA0B0*%
%FSLAX24Y24*%
%IPPOS*%
%LPD*%
%AMOC8*
5,1,8,0,0,1.08239X$1,22.5*
%
%ADD10C,0.0000*%
%ADD11C,0.0060*%
%ADD12C,0.0050*%
%ADD13C,0.0059*%
D10*
X000612Y000297D02*
X000612Y016045D01*
X008486Y016045D01*
X008486Y000297D01*
X000612Y000297D01*
D11*
X000873Y001350D02*
X000873Y001691D01*
X000760Y001691D02*
X000987Y001691D01*
X001128Y001691D02*
X001298Y001691D01*
X001355Y001634D01*
X001355Y001521D01*
X001298Y001464D01*
X001128Y001464D01*
X001128Y001350D02*
X001128Y001691D01*
X001497Y001577D02*
X001610Y001691D01*
X001610Y001350D01*
X001497Y001350D02*
X001723Y001350D01*
X001872Y002049D02*
X002502Y002049D01*
X002502Y002561D02*
X001872Y002561D01*
X001862Y002728D02*
X001862Y003069D01*
X002032Y003069D01*
X002089Y003012D01*
X002089Y002899D01*
X002032Y002842D01*
X001862Y002842D01*
X001976Y002842D02*
X002089Y002728D01*
X002231Y002785D02*
X002231Y002842D01*
X002287Y002899D01*
X002401Y002899D01*
X002457Y002842D01*
X002457Y002785D01*
X002401Y002728D01*
X002287Y002728D01*
X002231Y002785D01*
X002287Y002899D02*
X002231Y002955D01*
X002231Y003012D01*
X002287Y003069D01*
X002401Y003069D01*
X002457Y003012D01*
X002457Y002955D01*
X002401Y002899D01*
X003161Y003004D02*
X003161Y003344D01*
X003332Y003344D01*
X003388Y003288D01*
X003388Y003174D01*
X003332Y003117D01*
X003161Y003117D01*
X003275Y003117D02*
X003388Y003004D01*
X003530Y003061D02*
X003587Y003004D01*
X003700Y003004D01*
X003757Y003061D01*
X003757Y003288D01*
X003700Y003344D01*
X003587Y003344D01*
X003530Y003288D01*
X003530Y003231D01*
X003587Y003174D01*
X003757Y003174D01*
X003702Y002777D02*
X003702Y002147D01*
X003621Y001888D02*
X003678Y001831D01*
X003678Y001717D01*
X003621Y001661D01*
X003451Y001661D01*
X003451Y001547D02*
X003451Y001888D01*
X003621Y001888D01*
X003819Y001831D02*
X003876Y001888D01*
X003990Y001888D01*
X004046Y001831D01*
X004046Y001774D01*
X003819Y001547D01*
X004046Y001547D01*
X004461Y001888D02*
X004688Y001888D01*
X004574Y001888D02*
X004574Y001547D01*
X004829Y001547D02*
X004829Y001888D01*
X004999Y001888D01*
X005056Y001831D01*
X005056Y001717D01*
X004999Y001661D01*
X004829Y001661D01*
X005197Y001717D02*
X005424Y001717D01*
X005367Y001547D02*
X005367Y001888D01*
X005197Y001717D01*
X005438Y002177D02*
X005438Y002347D01*
X005495Y002404D01*
X005609Y002404D01*
X005665Y002347D01*
X005665Y002177D01*
X005779Y002177D02*
X005438Y002177D01*
X005609Y002546D02*
X005609Y002716D01*
X005665Y002772D01*
X005722Y002772D01*
X005779Y002716D01*
X005779Y002602D01*
X005722Y002546D01*
X005609Y002546D01*
X005495Y002659D01*
X005438Y002772D01*
X005779Y002404D02*
X005665Y002291D01*
X005907Y002147D02*
X005907Y002777D01*
X005907Y003565D02*
X005907Y004194D01*
X005779Y004002D02*
X005722Y004002D01*
X005495Y004229D01*
X005438Y004229D01*
X005438Y004002D01*
X005495Y003861D02*
X005438Y003804D01*
X005438Y003634D01*
X005779Y003634D01*
X005665Y003634D02*
X005665Y003804D01*
X005609Y003861D01*
X005495Y003861D01*
X005665Y003747D02*
X005779Y003861D01*
X005963Y005012D02*
X005906Y005069D01*
X005963Y005012D02*
X006076Y005012D01*
X006133Y005069D01*
X006133Y005182D01*
X006076Y005239D01*
X006019Y005239D01*
X005906Y005182D01*
X005906Y005352D01*
X006133Y005352D01*
X005765Y005295D02*
X005765Y005182D01*
X005708Y005125D01*
X005538Y005125D01*
X005538Y005012D02*
X005538Y005352D01*
X005708Y005352D01*
X005765Y005295D01*
X005396Y005352D02*
X005169Y005352D01*
X005283Y005352D02*
X005283Y005012D01*
X006419Y004194D02*
X006419Y003565D01*
X006419Y002777D02*
X006419Y002147D01*
X006377Y001888D02*
X006434Y001831D01*
X006434Y001717D01*
X006377Y001661D01*
X006207Y001661D01*
X006207Y001547D02*
X006207Y001888D01*
X006377Y001888D01*
X006575Y001831D02*
X006632Y001888D01*
X006745Y001888D01*
X006802Y001831D01*
X006802Y001774D01*
X006745Y001717D01*
X006802Y001661D01*
X006802Y001604D01*
X006745Y001547D01*
X006632Y001547D01*
X006575Y001604D01*
X006689Y001717D02*
X006745Y001717D01*
X006066Y001888D02*
X005839Y001888D01*
X005952Y001888D02*
X005952Y001547D01*
X007320Y002462D02*
X007322Y002471D01*
X007327Y002479D01*
X007335Y002484D01*
X007344Y002486D01*
X007353Y002484D01*
X007361Y002479D01*
X007366Y002471D01*
X007368Y002462D01*
X007366Y002453D01*
X007361Y002445D01*
X007353Y002440D01*
X007344Y002438D01*
X007335Y002440D01*
X007327Y002445D01*
X007322Y002453D01*
X007320Y002462D01*
X007462Y002462D02*
X007462Y002502D01*
X008092Y002502D01*
X008092Y002462D01*
X008031Y002610D02*
X008087Y002667D01*
X008087Y002780D01*
X008031Y002837D01*
X007974Y002837D01*
X007861Y002780D01*
X007861Y002951D01*
X008087Y002951D01*
X008013Y003427D02*
X007383Y003427D01*
X007492Y002951D02*
X007662Y002951D01*
X007719Y002894D01*
X007719Y002667D01*
X007662Y002610D01*
X007492Y002610D01*
X007492Y002951D01*
X007861Y002667D02*
X007917Y002610D01*
X008031Y002610D01*
X008092Y001911D02*
X008092Y001872D01*
X007462Y001872D01*
X007462Y001911D01*
X007413Y001651D02*
X007584Y001651D01*
X007640Y001595D01*
X007640Y001481D01*
X007584Y001425D01*
X007413Y001425D01*
X007527Y001425D02*
X007640Y001311D01*
X007782Y001311D02*
X007782Y001651D01*
X007952Y001651D01*
X008009Y001595D01*
X008009Y001481D01*
X007952Y001425D01*
X007782Y001425D01*
X007895Y001425D02*
X008009Y001311D01*
X008013Y001183D02*
X007383Y001183D01*
X007413Y001311D02*
X007413Y001651D01*
X007383Y000671D02*
X008013Y000671D01*
X008013Y003939D02*
X007383Y003939D01*
X007374Y004067D02*
X007374Y004407D01*
X007544Y004407D01*
X007601Y004351D01*
X007601Y004237D01*
X007544Y004180D01*
X007374Y004180D01*
X007488Y004180D02*
X007601Y004067D01*
X007742Y004124D02*
X007742Y004351D01*
X007799Y004407D01*
X007913Y004407D01*
X007969Y004351D01*
X007969Y004124D01*
X007913Y004067D01*
X007799Y004067D01*
X007742Y004124D01*
X007462Y004628D02*
X007462Y004667D01*
X007462Y004628D02*
X008092Y004628D01*
X008092Y004667D01*
X008092Y005218D02*
X008092Y005257D01*
X007462Y005257D01*
X007462Y005218D01*
X007320Y005218D02*
X007322Y005227D01*
X007327Y005235D01*
X007335Y005240D01*
X007344Y005242D01*
X007353Y005240D01*
X007361Y005235D01*
X007366Y005227D01*
X007368Y005218D01*
X007366Y005209D01*
X007361Y005201D01*
X007353Y005196D01*
X007344Y005194D01*
X007335Y005196D01*
X007327Y005201D01*
X007322Y005209D01*
X007320Y005218D01*
X007453Y005406D02*
X007623Y005406D01*
X007680Y005462D01*
X007680Y005689D01*
X007623Y005746D01*
X007453Y005746D01*
X007453Y005406D01*
X007383Y006183D02*
X008013Y006183D01*
X007991Y005746D02*
X007821Y005576D01*
X008048Y005576D01*
X007991Y005406D02*
X007991Y005746D01*
X008013Y006694D02*
X007383Y006694D01*
X007413Y006823D02*
X007413Y007163D01*
X007584Y007163D01*
X007640Y007106D01*
X007640Y006993D01*
X007584Y006936D01*
X007413Y006936D01*
X007527Y006936D02*
X007640Y006823D01*
X007895Y006993D02*
X007782Y007106D01*
X007782Y007163D01*
X007895Y006993D02*
X007895Y006823D01*
X007895Y006993D02*
X008009Y007106D01*
X008009Y007163D01*
X008092Y007383D02*
X008092Y007423D01*
X008092Y007383D02*
X007462Y007383D01*
X007462Y007423D01*
X007462Y007974D02*
X007462Y008013D01*
X008092Y008013D01*
X008092Y007974D01*
X007991Y008122D02*
X008048Y008179D01*
X008048Y008236D01*
X007991Y008292D01*
X007935Y008292D01*
X007991Y008292D02*
X008048Y008349D01*
X008048Y008406D01*
X007991Y008462D01*
X007878Y008462D01*
X007821Y008406D01*
X007821Y008179D02*
X007878Y008122D01*
X007991Y008122D01*
X007680Y008179D02*
X007680Y008406D01*
X007623Y008462D01*
X007453Y008462D01*
X007453Y008122D01*
X007623Y008122D01*
X007680Y008179D01*
X007320Y007974D02*
X007322Y007983D01*
X007327Y007991D01*
X007335Y007996D01*
X007344Y007998D01*
X007353Y007996D01*
X007361Y007991D01*
X007366Y007983D01*
X007368Y007974D01*
X007366Y007965D01*
X007361Y007957D01*
X007353Y007952D01*
X007344Y007950D01*
X007335Y007952D01*
X007327Y007957D01*
X007322Y007965D01*
X007320Y007974D01*
X007383Y008939D02*
X008013Y008939D01*
X008013Y009450D02*
X007383Y009450D01*
X007374Y009579D02*
X007374Y009919D01*
X007544Y009919D01*
X007601Y009862D01*
X007601Y009749D01*
X007544Y009692D01*
X007374Y009692D01*
X007488Y009692D02*
X007601Y009579D01*
X007742Y009636D02*
X007742Y009862D01*
X007799Y009919D01*
X007913Y009919D01*
X007969Y009862D01*
X007969Y009749D02*
X007856Y009749D01*
X007969Y009749D02*
X007969Y009636D01*
X007913Y009579D01*
X007799Y009579D01*
X007742Y009636D01*
X007462Y010139D02*
X007462Y010179D01*
X007462Y010139D02*
X008092Y010139D01*
X008092Y010179D01*
X008092Y010730D02*
X008092Y010769D01*
X007462Y010769D01*
X007462Y010730D01*
X007320Y010730D02*
X007322Y010739D01*
X007327Y010747D01*
X007335Y010752D01*
X007344Y010754D01*
X007353Y010752D01*
X007361Y010747D01*
X007366Y010739D01*
X007368Y010730D01*
X007366Y010721D01*
X007361Y010713D01*
X007353Y010708D01*
X007344Y010706D01*
X007335Y010708D01*
X007327Y010713D01*
X007322Y010721D01*
X007320Y010730D01*
X007453Y010878D02*
X007623Y010878D01*
X007680Y010935D01*
X007680Y011162D01*
X007623Y011218D01*
X007453Y011218D01*
X007453Y010878D01*
X007821Y010878D02*
X008048Y011105D01*
X008048Y011162D01*
X007991Y011218D01*
X007878Y011218D01*
X007821Y011162D01*
X007821Y010878D02*
X008048Y010878D01*
X008009Y011862D02*
X007782Y011862D01*
X007895Y011862D02*
X007895Y012203D01*
X007782Y012089D01*
X007640Y012146D02*
X007584Y012203D01*
X007470Y012203D01*
X007413Y012146D01*
X007413Y011919D01*
X007470Y011862D01*
X007584Y011862D01*
X007640Y011919D01*
X006714Y010139D02*
X003171Y010139D01*
X003171Y014076D01*
X006714Y014076D01*
X006714Y010139D01*
X003835Y009941D02*
X003779Y009998D01*
X003665Y009998D01*
X003609Y009941D01*
X003835Y009884D02*
X003609Y009658D01*
X003835Y009658D01*
X003835Y009884D02*
X003835Y009941D01*
X003467Y009998D02*
X003467Y009714D01*
X003410Y009658D01*
X003297Y009658D01*
X003240Y009714D01*
X003240Y009998D01*
X002175Y010155D02*
X002175Y008155D01*
X001175Y008155D01*
X001175Y010155D01*
X002175Y010155D01*
X001946Y010287D02*
X001719Y010287D01*
X001832Y010287D02*
X001832Y010628D01*
X001719Y010514D01*
X001793Y010769D02*
X001793Y010809D01*
X001793Y010769D02*
X001163Y010769D01*
X001163Y010809D01*
X001464Y010628D02*
X001577Y010628D01*
X001521Y010628D02*
X001521Y010344D01*
X001464Y010287D01*
X001407Y010287D01*
X001350Y010344D01*
X001015Y009943D02*
X001017Y009953D01*
X001022Y009962D01*
X001030Y009969D01*
X001040Y009973D01*
X001050Y009973D01*
X001060Y009969D01*
X001068Y009962D01*
X001073Y009953D01*
X001075Y009943D01*
X001073Y009933D01*
X001068Y009924D01*
X001060Y009917D01*
X001050Y009913D01*
X001040Y009913D01*
X001030Y009917D01*
X001022Y009924D01*
X001017Y009933D01*
X001015Y009943D01*
X001021Y011360D02*
X001023Y011369D01*
X001028Y011377D01*
X001036Y011382D01*
X001045Y011384D01*
X001054Y011382D01*
X001062Y011377D01*
X001067Y011369D01*
X001069Y011360D01*
X001067Y011351D01*
X001062Y011343D01*
X001054Y011338D01*
X001045Y011336D01*
X001036Y011338D01*
X001028Y011343D01*
X001023Y011351D01*
X001021Y011360D01*
X001163Y011360D02*
X001163Y011399D01*
X001793Y011399D01*
X001793Y011360D01*
X001788Y011508D02*
X001561Y011508D01*
X001420Y011565D02*
X001420Y011792D01*
X001363Y011848D01*
X001193Y011848D01*
X001193Y011508D01*
X001363Y011508D01*
X001420Y011565D01*
X001561Y011735D02*
X001675Y011848D01*
X001675Y011508D01*
X001714Y011970D02*
X001084Y011970D01*
X001084Y012482D02*
X001714Y012482D01*
X001653Y012610D02*
X001483Y012610D01*
X001483Y012951D01*
X001653Y012951D01*
X001709Y012894D01*
X001709Y012837D01*
X001653Y012780D01*
X001483Y012780D01*
X001341Y012780D02*
X001284Y012724D01*
X001114Y012724D01*
X001228Y012724D02*
X001341Y012610D01*
X001341Y012780D02*
X001341Y012894D01*
X001284Y012951D01*
X001114Y012951D01*
X001114Y012610D01*
X001653Y012610D02*
X001709Y012667D01*
X001709Y012724D01*
X001653Y012780D01*
X001801Y014343D02*
X001914Y014343D01*
X001971Y014399D01*
X001971Y014683D01*
X002023Y014843D02*
X002573Y014843D01*
X002523Y014718D02*
X002525Y014728D01*
X002530Y014736D01*
X002538Y014741D01*
X002548Y014743D01*
X002558Y014741D01*
X002566Y014736D01*
X002571Y014728D01*
X002573Y014718D01*
X002571Y014708D01*
X002566Y014700D01*
X002558Y014695D01*
X002548Y014693D01*
X002538Y014695D01*
X002530Y014700D01*
X002525Y014708D01*
X002523Y014718D01*
X002339Y014626D02*
X002339Y014569D01*
X002283Y014513D01*
X002339Y014456D01*
X002339Y014399D01*
X002283Y014343D01*
X002169Y014343D01*
X002112Y014399D01*
X002226Y014513D02*
X002283Y014513D01*
X002339Y014626D02*
X002283Y014683D01*
X002169Y014683D01*
X002112Y014626D01*
X002023Y014843D02*
X002023Y015018D01*
X002023Y015418D02*
X002023Y015593D01*
X002573Y015593D01*
X002923Y015368D02*
X002923Y015068D01*
X003201Y014565D02*
X003201Y014281D01*
X003258Y014224D01*
X003371Y014224D01*
X003428Y014281D01*
X003428Y014565D01*
X003569Y014451D02*
X003683Y014565D01*
X003683Y014224D01*
X003796Y014224D02*
X003569Y014224D01*
X003638Y013919D02*
X003640Y013929D01*
X003645Y013937D01*
X003653Y013942D01*
X003663Y013944D01*
X003673Y013942D01*
X003681Y013937D01*
X003686Y013929D01*
X003688Y013919D01*
X003686Y013909D01*
X003681Y013901D01*
X003673Y013896D01*
X003663Y013894D01*
X003653Y013896D01*
X003645Y013901D01*
X003640Y013909D01*
X003638Y013919D01*
X003826Y015563D02*
X003826Y015903D01*
X003713Y015903D02*
X003940Y015903D01*
X004081Y015903D02*
X004081Y015563D01*
X004081Y015677D02*
X004251Y015677D01*
X004308Y015733D01*
X004308Y015847D01*
X004251Y015903D01*
X004081Y015903D01*
X004449Y015847D02*
X004449Y015620D01*
X004676Y015847D01*
X004676Y015620D01*
X004619Y015563D01*
X004506Y015563D01*
X004449Y015620D01*
X004449Y015847D02*
X004506Y015903D01*
X004619Y015903D01*
X004676Y015847D01*
X001801Y014343D02*
X001744Y014399D01*
X001744Y014683D01*
X001549Y006946D02*
X001492Y006946D01*
X001435Y006889D01*
X001435Y006832D01*
X001435Y006889D02*
X001379Y006946D01*
X001322Y006946D01*
X001265Y006889D01*
X001265Y006776D01*
X001322Y006719D01*
X001322Y006577D02*
X001265Y006521D01*
X001265Y006407D01*
X001322Y006350D01*
X001549Y006350D01*
X001605Y006407D01*
X001605Y006521D01*
X001549Y006577D01*
X001549Y006719D02*
X001605Y006776D01*
X001605Y006889D01*
X001549Y006946D01*
X003191Y002777D02*
X003191Y002147D01*
X003196Y001888D02*
X003196Y001547D01*
X003083Y001888D02*
X003310Y001888D01*
D12*
X003171Y001084D02*
X003173Y001123D01*
X003179Y001162D01*
X003189Y001200D01*
X003202Y001237D01*
X003219Y001272D01*
X003239Y001306D01*
X003263Y001337D01*
X003290Y001366D01*
X003319Y001392D01*
X003351Y001415D01*
X003385Y001435D01*
X003421Y001451D01*
X003458Y001463D01*
X003497Y001472D01*
X003536Y001477D01*
X003575Y001478D01*
X003614Y001475D01*
X003653Y001468D01*
X003690Y001457D01*
X003727Y001443D01*
X003762Y001425D01*
X003795Y001404D01*
X003826Y001379D01*
X003854Y001352D01*
X003879Y001322D01*
X003901Y001289D01*
X003920Y001255D01*
X003935Y001219D01*
X003947Y001181D01*
X003955Y001143D01*
X003959Y001104D01*
X003959Y001064D01*
X003955Y001025D01*
X003947Y000987D01*
X003935Y000949D01*
X003920Y000913D01*
X003901Y000879D01*
X003879Y000846D01*
X003854Y000816D01*
X003826Y000789D01*
X003795Y000764D01*
X003762Y000743D01*
X003727Y000725D01*
X003690Y000711D01*
X003653Y000700D01*
X003614Y000693D01*
X003575Y000690D01*
X003536Y000691D01*
X003497Y000696D01*
X003458Y000705D01*
X003421Y000717D01*
X003385Y000733D01*
X003351Y000753D01*
X003319Y000776D01*
X003290Y000802D01*
X003263Y000831D01*
X003239Y000862D01*
X003219Y000896D01*
X003202Y000931D01*
X003189Y000968D01*
X003179Y001006D01*
X003173Y001045D01*
X003171Y001084D01*
X001793Y001084D02*
X001795Y001123D01*
X001801Y001162D01*
X001811Y001200D01*
X001824Y001237D01*
X001841Y001272D01*
X001861Y001306D01*
X001885Y001337D01*
X001912Y001366D01*
X001941Y001392D01*
X001973Y001415D01*
X002007Y001435D01*
X002043Y001451D01*
X002080Y001463D01*
X002119Y001472D01*
X002158Y001477D01*
X002197Y001478D01*
X002236Y001475D01*
X002275Y001468D01*
X002312Y001457D01*
X002349Y001443D01*
X002384Y001425D01*
X002417Y001404D01*
X002448Y001379D01*
X002476Y001352D01*
X002501Y001322D01*
X002523Y001289D01*
X002542Y001255D01*
X002557Y001219D01*
X002569Y001181D01*
X002577Y001143D01*
X002581Y001104D01*
X002581Y001064D01*
X002577Y001025D01*
X002569Y000987D01*
X002557Y000949D01*
X002542Y000913D01*
X002523Y000879D01*
X002501Y000846D01*
X002476Y000816D01*
X002448Y000789D01*
X002417Y000764D01*
X002384Y000743D01*
X002349Y000725D01*
X002312Y000711D01*
X002275Y000700D01*
X002236Y000693D01*
X002197Y000690D01*
X002158Y000691D01*
X002119Y000696D01*
X002080Y000705D01*
X002043Y000717D01*
X002007Y000733D01*
X001973Y000753D01*
X001941Y000776D01*
X001912Y000802D01*
X001885Y000831D01*
X001861Y000862D01*
X001841Y000896D01*
X001824Y000931D01*
X001811Y000968D01*
X001801Y001006D01*
X001795Y001045D01*
X001793Y001084D01*
X001775Y006560D02*
X001775Y006710D01*
X002125Y006710D02*
X002125Y006560D01*
X004549Y004628D02*
X004551Y004667D01*
X004557Y004706D01*
X004567Y004744D01*
X004580Y004781D01*
X004597Y004816D01*
X004617Y004850D01*
X004641Y004881D01*
X004668Y004910D01*
X004697Y004936D01*
X004729Y004959D01*
X004763Y004979D01*
X004799Y004995D01*
X004836Y005007D01*
X004875Y005016D01*
X004914Y005021D01*
X004953Y005022D01*
X004992Y005019D01*
X005031Y005012D01*
X005068Y005001D01*
X005105Y004987D01*
X005140Y004969D01*
X005173Y004948D01*
X005204Y004923D01*
X005232Y004896D01*
X005257Y004866D01*
X005279Y004833D01*
X005298Y004799D01*
X005313Y004763D01*
X005325Y004725D01*
X005333Y004687D01*
X005337Y004648D01*
X005337Y004608D01*
X005333Y004569D01*
X005325Y004531D01*
X005313Y004493D01*
X005298Y004457D01*
X005279Y004423D01*
X005257Y004390D01*
X005232Y004360D01*
X005204Y004333D01*
X005173Y004308D01*
X005140Y004287D01*
X005105Y004269D01*
X005068Y004255D01*
X005031Y004244D01*
X004992Y004237D01*
X004953Y004234D01*
X004914Y004235D01*
X004875Y004240D01*
X004836Y004249D01*
X004799Y004261D01*
X004763Y004277D01*
X004729Y004297D01*
X004697Y004320D01*
X004668Y004346D01*
X004641Y004375D01*
X004617Y004406D01*
X004597Y004440D01*
X004580Y004475D01*
X004567Y004512D01*
X004557Y004550D01*
X004551Y004589D01*
X004549Y004628D01*
X004549Y001084D02*
X004551Y001123D01*
X004557Y001162D01*
X004567Y001200D01*
X004580Y001237D01*
X004597Y001272D01*
X004617Y001306D01*
X004641Y001337D01*
X004668Y001366D01*
X004697Y001392D01*
X004729Y001415D01*
X004763Y001435D01*
X004799Y001451D01*
X004836Y001463D01*
X004875Y001472D01*
X004914Y001477D01*
X004953Y001478D01*
X004992Y001475D01*
X005031Y001468D01*
X005068Y001457D01*
X005105Y001443D01*
X005140Y001425D01*
X005173Y001404D01*
X005204Y001379D01*
X005232Y001352D01*
X005257Y001322D01*
X005279Y001289D01*
X005298Y001255D01*
X005313Y001219D01*
X005325Y001181D01*
X005333Y001143D01*
X005337Y001104D01*
X005337Y001064D01*
X005333Y001025D01*
X005325Y000987D01*
X005313Y000949D01*
X005298Y000913D01*
X005279Y000879D01*
X005257Y000846D01*
X005232Y000816D01*
X005204Y000789D01*
X005173Y000764D01*
X005140Y000743D01*
X005105Y000725D01*
X005068Y000711D01*
X005031Y000700D01*
X004992Y000693D01*
X004953Y000690D01*
X004914Y000691D01*
X004875Y000696D01*
X004836Y000705D01*
X004799Y000717D01*
X004763Y000733D01*
X004729Y000753D01*
X004697Y000776D01*
X004668Y000802D01*
X004641Y000831D01*
X004617Y000862D01*
X004597Y000896D01*
X004580Y000931D01*
X004567Y000968D01*
X004557Y001006D01*
X004551Y001045D01*
X004549Y001084D01*
X005926Y001084D02*
X005928Y001123D01*
X005934Y001162D01*
X005944Y001200D01*
X005957Y001237D01*
X005974Y001272D01*
X005994Y001306D01*
X006018Y001337D01*
X006045Y001366D01*
X006074Y001392D01*
X006106Y001415D01*
X006140Y001435D01*
X006176Y001451D01*
X006213Y001463D01*
X006252Y001472D01*
X006291Y001477D01*
X006330Y001478D01*
X006369Y001475D01*
X006408Y001468D01*
X006445Y001457D01*
X006482Y001443D01*
X006517Y001425D01*
X006550Y001404D01*
X006581Y001379D01*
X006609Y001352D01*
X006634Y001322D01*
X006656Y001289D01*
X006675Y001255D01*
X006690Y001219D01*
X006702Y001181D01*
X006710Y001143D01*
X006714Y001104D01*
X006714Y001064D01*
X006710Y001025D01*
X006702Y000987D01*
X006690Y000949D01*
X006675Y000913D01*
X006656Y000879D01*
X006634Y000846D01*
X006609Y000816D01*
X006581Y000789D01*
X006550Y000764D01*
X006517Y000743D01*
X006482Y000725D01*
X006445Y000711D01*
X006408Y000700D01*
X006369Y000693D01*
X006330Y000690D01*
X006291Y000691D01*
X006252Y000696D01*
X006213Y000705D01*
X006176Y000717D01*
X006140Y000733D01*
X006106Y000753D01*
X006074Y000776D01*
X006045Y000802D01*
X006018Y000831D01*
X005994Y000862D01*
X005974Y000896D01*
X005957Y000931D01*
X005944Y000968D01*
X005934Y001006D01*
X005928Y001045D01*
X005926Y001084D01*
X007663Y011342D02*
X007813Y011342D01*
X007813Y011692D02*
X007663Y011692D01*
X003722Y015061D02*
X003724Y015100D01*
X003730Y015139D01*
X003740Y015177D01*
X003753Y015214D01*
X003770Y015249D01*
X003790Y015283D01*
X003814Y015314D01*
X003841Y015343D01*
X003870Y015369D01*
X003902Y015392D01*
X003936Y015412D01*
X003972Y015428D01*
X004009Y015440D01*
X004048Y015449D01*
X004087Y015454D01*
X004126Y015455D01*
X004165Y015452D01*
X004204Y015445D01*
X004241Y015434D01*
X004278Y015420D01*
X004313Y015402D01*
X004346Y015381D01*
X004377Y015356D01*
X004405Y015329D01*
X004430Y015299D01*
X004452Y015266D01*
X004471Y015232D01*
X004486Y015196D01*
X004498Y015158D01*
X004506Y015120D01*
X004510Y015081D01*
X004510Y015041D01*
X004506Y015002D01*
X004498Y014964D01*
X004486Y014926D01*
X004471Y014890D01*
X004452Y014856D01*
X004430Y014823D01*
X004405Y014793D01*
X004377Y014766D01*
X004346Y014741D01*
X004313Y014720D01*
X004278Y014702D01*
X004241Y014688D01*
X004204Y014677D01*
X004165Y014670D01*
X004126Y014667D01*
X004087Y014668D01*
X004048Y014673D01*
X004009Y014682D01*
X003972Y014694D01*
X003936Y014710D01*
X003902Y014730D01*
X003870Y014753D01*
X003841Y014779D01*
X003814Y014808D01*
X003790Y014839D01*
X003770Y014873D01*
X003753Y014908D01*
X003740Y014945D01*
X003730Y014983D01*
X003724Y015022D01*
X003722Y015061D01*
D13*
X003171Y009549D02*
X003171Y005612D01*
X006714Y005612D01*
X006714Y009549D01*
X003171Y009549D01*
X003540Y009391D02*
X003542Y009401D01*
X003547Y009409D01*
X003555Y009414D01*
X003565Y009416D01*
X003575Y009414D01*
X003583Y009409D01*
X003588Y009401D01*
X003590Y009391D01*
X003588Y009381D01*
X003583Y009373D01*
X003575Y009368D01*
X003565Y009366D01*
X003555Y009368D01*
X003547Y009373D01*
X003542Y009381D01*
X003540Y009391D01*
M02*
