G75*
%MOIN*%
%OFA0B0*%
%FSLAX24Y24*%
%IPPOS*%
%LPD*%
%AMOC8*
5,1,8,0,0,1.08239X$1,22.5*
%
%ADD10C,0.0394*%
%ADD11R,0.0354X0.0276*%
%ADD12C,0.0591*%
%ADD13C,0.0472*%
%ADD14R,0.0354X0.0256*%
%ADD15C,0.0060*%
%ADD16C,0.0270*%
D10*
X001006Y000691D03*
X001006Y015257D03*
X007698Y015257D03*
D11*
X007777Y008899D03*
X007777Y008309D03*
D12*
X001675Y008655D03*
X001675Y009655D03*
D13*
X004116Y015061D03*
X004943Y004628D03*
X004943Y001084D03*
X006320Y001084D03*
X003565Y001084D03*
X002187Y001084D03*
D14*
X002029Y002391D03*
X002029Y002927D03*
X003210Y002927D03*
X003210Y002391D03*
X004391Y002391D03*
X004391Y002927D03*
X005572Y002927D03*
X005572Y002391D03*
X006754Y002391D03*
X006754Y002927D03*
D15*
X006911Y002895D01*
X006911Y005533D01*
X006911Y008880D01*
X007777Y008880D01*
X007777Y008899D01*
X007777Y008328D02*
X007777Y008309D01*
X007777Y008328D02*
X007147Y008328D01*
X005533Y008171D02*
X005454Y008092D01*
X005533Y008171D02*
X005533Y013289D01*
X005454Y013368D01*
X005376Y012423D02*
X005376Y008604D01*
X005218Y008446D01*
X005218Y007974D01*
X005297Y007895D01*
X005297Y004352D01*
X004746Y003801D01*
X004509Y002895D02*
X004391Y002927D01*
X004391Y002895D01*
X004509Y002895D01*
X004509Y010218D01*
X005139Y010848D01*
X005376Y012423D02*
X004431Y013368D01*
X004588Y012856D02*
X004194Y012462D01*
X004194Y009470D01*
X004194Y004706D01*
X004746Y005572D02*
X004746Y008053D01*
X003092Y007069D02*
X003092Y005809D01*
X003013Y005730D01*
X002541Y007580D02*
X002541Y012305D01*
X003092Y012856D01*
X003328Y012383D02*
X003328Y015336D01*
X003328Y011360D02*
X003328Y002817D01*
X003210Y002927D01*
X003210Y002895D01*
X003565Y002541D01*
X003565Y002383D01*
X004391Y002383D01*
X004391Y002391D01*
X004509Y002895D02*
X005297Y002895D01*
X005297Y002698D01*
X005572Y002423D01*
X005572Y002391D01*
X005572Y001832D01*
X006320Y001084D01*
X006202Y000730D02*
X005966Y000966D01*
X005966Y001084D01*
X004943Y001084D01*
X005572Y002895D02*
X005572Y002927D01*
X005572Y002895D02*
X006478Y002895D01*
X006478Y011754D01*
X006557Y011832D01*
X003092Y010533D02*
X002777Y010218D01*
X002777Y002895D01*
X002029Y002895D01*
X002029Y002927D01*
X002029Y002391D02*
X002029Y001872D01*
X002187Y001084D02*
X003210Y002108D01*
X003210Y002391D01*
X003210Y002423D01*
X002935Y002698D01*
X002935Y002895D01*
X002777Y002895D01*
X003565Y002383D02*
X003565Y001084D01*
X006202Y000730D02*
X006675Y000730D01*
X006675Y002462D01*
X006754Y002391D01*
X006754Y002423D01*
X006478Y002698D01*
X006478Y002895D01*
X006754Y002895D02*
X006754Y002927D01*
X006754Y002895D02*
X006872Y002895D01*
X007187Y002580D01*
X001675Y009655D02*
X001675Y009667D01*
X000966Y009667D01*
D16*
X000966Y009667D03*
X002541Y007580D03*
X003092Y007069D03*
X003013Y005730D03*
X004194Y004706D03*
X004746Y005572D03*
X004746Y003801D03*
X006911Y005533D03*
X005454Y008092D03*
X005218Y008446D03*
X004746Y008053D03*
X004194Y009470D03*
X005139Y010848D03*
X004588Y012856D03*
X004431Y013368D03*
X005454Y013368D03*
X006557Y011832D03*
X007147Y008328D03*
X007187Y002580D03*
X003092Y010533D03*
X003328Y011360D03*
X003328Y012383D03*
X003092Y012856D03*
X003328Y015336D03*
X002029Y001872D03*
M02*
